<svg width="220" height="68" viewBox="0 0 220 68" fill="none" xmlns="http://www.w3.org/2000/svg">
<path fill-rule="evenodd" clip-rule="evenodd" d="M126.021 14.3123C128.469 11.0554 132.564 8.6714 134.745 14.9988C136.927 21.327 142.26 71.2619 115.087 66.9285C104.959 64.8478 106.861 53.423 115.087 57.0701C123.314 60.7172 124.171 54.2955 126.02 48.5115C95.1531 59.8506 110.339 -3.52441 126.021 14.3123ZM146.806 12.7488C131.651 3.67849 146.959 -8.57541 154.982 8.72147C155.409 7.43942 156.019 6.01623 156.797 4.7908C157.61 3.51184 158.648 2.37827 159.912 1.90506C161.23 1.41217 162.68 1.67639 164.171 2.94998C166.584 5.01092 167.936 6.64165 168.533 7.92069C168.833 8.56485 168.956 9.1519 168.898 9.67459C168.838 10.2089 168.593 10.6373 168.233 10.9529C167.542 11.5583 166.477 11.719 165.538 11.6463C164.964 11.6017 164.37 11.463 163.861 11.2351V12.1414C164.436 12.7734 164.962 13.7035 165.408 14.9969C167.588 21.3228 172.916 71.2299 145.762 66.8992C135.642 64.8193 137.541 53.4013 145.762 57.0457C153.983 60.6906 154.84 54.2727 156.688 48.492C132.703 57.3037 136.544 20.9691 146.806 12.7488ZM86.3909 11.3719C88.2666 10.4201 91.765 10.1588 95.137 11.2859C98.5434 12.4248 101.88 14.9999 103.359 19.7849C104.793 24.4298 106.28 31.9234 106.424 38.3211C106.496 41.5139 106.235 44.4837 105.434 46.698C104.63 48.9204 103.227 50.4999 100.985 50.6121C99.2039 50.7002 97.8636 50.4655 96.8225 49.7019C95.9361 49.0514 95.3319 48.0624 94.8235 46.7488C92.4957 48.5965 90.1549 49.4367 87.9563 49.4861C85.5856 49.5391 83.4278 48.6736 81.6858 47.2527C78.2187 44.4242 76.3417 39.3496 77.6292 34.7107C78.9253 30.0419 82.6762 27.7742 86.2903 26.7312C89.8932 25.6916 93.4683 25.8323 94.6487 26.0613C94.678 26.067 94.6973 26.0669 94.7073 26.0662C94.7118 26.0658 94.7153 26.0656 94.7171 26.0652C94.7184 26.0649 94.7195 26.0644 94.72 26.0642L94.721 26.0633C94.7217 26.0628 94.7236 26.0613 94.7259 26.0594C94.7305 26.0553 94.7398 26.0464 94.7513 26.0291C94.8068 25.9451 94.8685 25.7496 94.8665 25.4168C94.8624 24.7679 94.6176 23.8455 94.1204 22.991C93.6247 22.1395 92.9102 21.4096 92.013 21.0691C91.1341 20.736 90.0046 20.7471 88.5989 21.5105C86.9957 22.3812 85.0665 22.7441 83.3284 22.6726C81.6098 22.6018 79.9678 22.1003 79.0266 21.1199C78.5438 20.6166 78.246 19.9841 78.2386 19.2459C78.2315 18.5175 78.5071 17.7384 79.0647 16.9265C80.1724 15.3142 82.4729 13.4512 86.3821 11.3758L86.3899 11.3719H86.3909ZM6.03544 1.32108C21.5163 -3.42585 31.678 4.34106 26.3538 29.2664C24.6698 37.931 39.2341 43.77 40.5862 30.4383C34.2885 22.0242 36.495 19.1219 46.5647 19.1219C56.6342 19.122 58.1269 22.369 52.1155 31.0984C53.0054 41.7928 64.4143 48.9773 66.6683 26.7762C68.5206 16.5955 58.9114 4.14127 67.0599 1.17459C73.6071 -0.876443 78.8732 17.2168 72.9309 39.0457C66.9886 60.8746 46.0449 45.9241 46.5647 33.9178C40.4801 53.5856 27.0296 49.5574 20.8382 40.9139C17.8376 35.4008 17.1333 30.9702 19.344 21.6482C21.0163 15.0558 21.0869 7.95085 11.5159 14.7625C1.9443 21.5748 -5.88464 7.51085 6.03544 1.32108ZM204.241 11.241C224.322 8.64215 227.587 31.3729 199.472 35.3865C197.221 35.6452 201.216 43.0556 211.43 38.3621C221.644 33.668 222.411 41.6834 215.416 45.6951C208.422 49.7066 207.601 50.0609 203.779 50.1746C180.111 50.6043 184.16 13.8402 204.241 11.241ZM179.601 0.000765311C181.13 -0.00136908 181.935 0.0471946 183.302 0.935336C188.142 4.2386 180.312 17.6513 181.415 28.1609C182.501 38.5064 190.551 47.5001 180.112 49.9363L179.601 50.0476C166.362 52.8156 168.96 0.00339479 179.601 0.00174187V0.000765311ZM95.097 32.034C92.0584 31.7663 89.8073 32.4007 88.3255 33.4851C86.8445 34.5691 86.149 36.0968 86.2561 37.5232C86.3642 38.9601 87.286 40.2298 88.8841 40.7449C90.4631 41.2537 92.635 41.01 95.2835 39.6306L95.553 39.49V32.074L95.097 32.034ZM121.95 25.2967C120.311 25.2968 118.996 26.3373 118.068 27.7459C117.137 29.1594 116.538 31.0185 116.333 32.8592C116.129 34.6956 116.309 36.578 117 38.0242C117.704 39.4972 118.955 40.5329 120.812 40.533C122.654 40.533 124.032 39.515 124.95 38.0769C125.86 36.6501 126.342 34.7797 126.432 32.9392C126.522 31.0994 126.222 29.2286 125.508 27.7976C124.791 26.3611 123.611 25.2967 121.95 25.2967ZM152.629 24.7117C150.986 24.7123 149.671 25.7692 148.744 27.1951C147.814 28.6271 147.217 30.5112 147.012 32.3758C146.808 34.2361 146.988 36.1424 147.678 37.6062C148.38 39.0961 149.631 40.1487 151.491 40.1492C153.335 40.1492 154.714 39.1154 155.63 37.6599C156.539 36.2148 157.021 34.3193 157.111 32.4549C157.2 30.591 156.901 28.6959 156.189 27.2469C155.474 25.7935 154.293 24.7117 152.629 24.7117ZM208.639 20.4168C207.464 19.3222 206.093 19.1282 204.779 19.4705C203.491 19.8059 202.257 20.6508 201.245 21.6346C200.231 22.6212 199.398 23.7884 198.929 24.824C198.696 25.3391 198.538 25.851 198.511 26.3084C198.484 26.7621 198.584 27.2491 198.971 27.576C199.318 27.8691 199.827 27.9743 200.326 27.9988C200.848 28.0243 201.46 27.9665 202.108 27.8465C203.404 27.606 204.909 27.1034 206.226 26.4285C207.526 25.7622 208.724 24.8873 209.312 23.8631C209.613 23.3382 209.764 22.7533 209.66 22.1394C209.557 21.5282 209.212 20.9508 208.639 20.4168Z" fill="#202E3B"/>
</svg>
